<svg width="20" height="30" viewBox="0 0 20 30" fill="none" xmlns="http://www.w3.org/2000/svg">
<mask id="mask0_1110_222" style="mask-type:alpha" maskUnits="userSpaceOnUse" x="0" y="0" width="20" height="30">
<g clip-path="url(#clip0_1110_222)">
<path d="M12.5649 5.9844V6.13071C12.5649 6.16119 12.5649 6.23028 12.5649 6.13071C12.5519 6.20837 12.5339 6.28508 12.511 6.36034C12.499 6.40301 12.483 6.44772 12.467 6.49039C12.467 6.46804 12.507 6.41317 12.467 6.49039C12.4271 6.56761 12.3791 6.6489 12.3292 6.72612C12.2513 6.84398 12.3671 6.68548 12.3112 6.74847C12.2872 6.77692 12.2613 6.80537 12.2353 6.83179C12.2093 6.8582 12.1934 6.87446 12.1714 6.89681C12.1494 6.91917 12.0515 6.99842 12.1354 6.93339C12.0759 6.97937 12.0132 7.0208 11.9476 7.05735L11.8697 7.10003C11.8138 7.12644 11.8158 7.12441 11.8697 7.10003C11.8493 7.11026 11.8279 7.11842 11.8058 7.12441C11.7337 7.14943 11.6604 7.17045 11.5861 7.18741C11.5621 7.18741 11.4602 7.20773 11.5581 7.18741C11.5182 7.18741 11.4782 7.18741 11.4383 7.19757C11.3591 7.2026 11.2797 7.2026 11.2005 7.19757C11.1127 7.19757 11.3144 7.22602 11.1726 7.19757L11.0367 7.16505C10.9928 7.15286 10.9508 7.1366 10.9069 7.12238C10.821 7.08174 10.8629 7.10815 10.9069 7.12238C10.8382 7.08989 10.7715 7.05325 10.7071 7.01264C10.6752 6.99232 10.6452 6.96997 10.6152 6.94762C10.5473 6.89885 10.6932 7.02687 10.5933 6.92933C10.5293 6.8643 10.4654 6.80334 10.4075 6.72612C10.4075 6.72612 10.4634 6.79114 10.4075 6.72612L10.3336 6.61232L10.2896 6.53307C10.2896 6.52088 10.2237 6.38472 10.2637 6.48633C10.2353 6.41426 10.2119 6.34024 10.1938 6.26483C10.1938 6.23435 10.1818 6.20387 10.1738 6.17338C10.1658 6.1429 10.1738 6.11242 10.1738 6.17338C10.1717 6.14972 10.1717 6.12592 10.1738 6.10226C10.1688 6.02987 10.1688 5.95722 10.1738 5.88483C10.1738 5.8706 10.1958 5.71616 10.1738 5.82793L10.1918 5.73648C10.2088 5.66079 10.2302 5.58616 10.2557 5.51295C10.2996 5.37883 10.2097 5.58814 10.2777 5.46418C10.2996 5.42557 10.3196 5.38289 10.3416 5.34428L10.4035 5.24878C10.4155 5.22845 10.4794 5.15327 10.4195 5.22439C10.4676 5.16657 10.519 5.11162 10.5733 5.05979C10.5733 5.05979 10.6792 4.96631 10.6232 5.01102C10.5673 5.05573 10.6852 4.96835 10.6812 4.97038C10.7564 4.91979 10.8352 4.87496 10.9169 4.83626C10.831 4.86471 10.8969 4.84642 10.9169 4.83626C10.9608 4.82203 11.0028 4.80578 11.0467 4.79358L11.1366 4.77123C11.1366 4.77123 11.2804 4.74481 11.2065 4.75497C11.1326 4.76513 11.2864 4.75497 11.2824 4.75497H11.4003H11.5202C11.638 4.75497 11.4702 4.73668 11.5721 4.75497C11.674 4.77326 11.7499 4.79968 11.8378 4.83016C11.9736 4.8769 11.7878 4.80374 11.8637 4.84235L12.0036 4.91754L12.0795 4.96631L12.1514 5.01915C12.1095 4.98663 12.1115 4.98867 12.1514 5.01915C12.1914 5.04963 12.2553 5.12685 12.3092 5.17968C12.4051 5.27926 12.2633 5.10246 12.3412 5.22033C12.3671 5.2569 12.3911 5.29551 12.4151 5.33412C12.4391 5.37273 12.457 5.41541 12.479 5.45402C12.529 5.54546 12.465 5.39306 12.501 5.50279C12.5369 5.61252 12.5529 5.67958 12.5749 5.77103C12.5749 5.78932 12.5889 5.8706 12.5749 5.77103C12.5749 5.83605 12.5749 5.90108 12.5869 5.96408C12.5869 6.09881 12.6395 6.22803 12.7332 6.32331C12.8268 6.41858 12.9538 6.4721 13.0863 6.4721C13.2187 6.4721 13.3458 6.41858 13.4394 6.32331C13.5331 6.22803 13.5857 6.09881 13.5857 5.96408C13.5752 5.5017 13.4274 5.05337 13.1618 4.67799C12.8962 4.30262 12.5252 4.01776 12.0975 3.86085C11.674 3.70663 11.2143 3.68721 10.7797 3.80519C10.3451 3.92316 9.95607 4.17293 9.66439 4.52128C9.43357 4.79735 9.27167 5.12601 9.19244 5.47936C9.11322 5.8327 9.11901 6.20027 9.20933 6.55085C9.29965 6.90143 9.47182 7.22465 9.71122 7.49305C9.95061 7.76144 10.2502 7.96709 10.5844 8.09251C10.9187 8.21792 11.2777 8.25941 11.6311 8.21344C11.9845 8.16747 12.3218 8.0354 12.6142 7.82845C12.9067 7.6215 13.1457 7.34579 13.311 7.02475C13.4763 6.70371 13.563 6.34682 13.5637 5.9844C13.5637 5.84966 13.5111 5.72044 13.4174 5.62517C13.3238 5.5299 13.1968 5.47637 13.0643 5.47637C12.9319 5.47637 12.8048 5.5299 12.7112 5.62517C12.6175 5.72044 12.5649 5.84966 12.5649 5.9844Z" fill="#211915"/>
<path d="M10.16 5.5532L10.138 1.14352V0.511538L9.63459 1.0155C9.9101 1.0073 10.1858 1.01953 10.4596 1.05208L10.6454 1.0724L10.7552 1.08662C10.6414 1.0724 10.6833 1.07443 10.7552 1.08662C10.9131 1.11101 11.0709 1.13946 11.2267 1.16994C11.5945 1.24637 11.9574 1.34545 12.3134 1.46663C12.4093 1.49914 12.5131 1.53369 12.599 1.57027L12.7249 1.62513L12.8008 1.65765C12.9226 1.70439 12.7269 1.6231 12.8208 1.65765C13.0205 1.74503 13.2203 1.84054 13.4201 1.94621C13.6198 2.05188 13.8196 2.1738 14.0193 2.30386C14.1126 2.36753 14.2044 2.43527 14.295 2.50707C14.317 2.52129 14.4768 2.64728 14.3769 2.56803C14.4288 2.60664 14.4788 2.64931 14.5287 2.68996C14.7228 2.85318 14.9082 3.02684 15.0841 3.21018C15.1759 3.30569 15.2638 3.40323 15.3497 3.50483L15.4736 3.65114L15.5275 3.7182L15.5815 3.78729C15.5515 3.74868 15.5475 3.74259 15.5675 3.77104C15.9256 4.25479 16.2272 4.7792 16.4664 5.33373C16.5123 5.44143 16.4884 5.3825 16.5323 5.4963C16.5763 5.61009 16.6022 5.67715 16.6342 5.76657C16.6981 5.94742 16.756 6.12828 16.808 6.31117C16.9243 6.71504 17.017 7.12557 17.0856 7.5406C17.234 8.5164 17.2842 9.50505 17.2355 10.4912C17.2095 11.1456 18.2083 11.1435 18.2343 10.4912C18.3481 7.54466 17.7628 4.35629 15.5595 2.26321C14.2191 1.00128 12.4952 0.296135 10.7113 0.068539C10.3549 0.0149909 9.99476 -0.00812031 9.63459 -0.000552601C9.50294 0.00204857 9.3774 0.0564077 9.28429 0.151123C9.19119 0.245839 9.13775 0.373551 9.13519 0.507474L9.15717 4.91511V5.54913C9.15717 6.20144 10.156 6.20347 10.156 5.54913L10.16 5.5532Z" fill="#211915"/>
<path d="M17.7188 9.98159C15.2837 9.94298 12.8486 9.87592 10.4156 9.8678C9.32893 9.84091 8.24388 9.96742 7.19142 10.2437C6.25901 10.5093 5.36994 10.9126 4.55259 11.4406C3.62387 12.0406 2.80187 12.7965 2.1215 13.676C2.031 13.7727 1.98053 13.9011 1.98053 14.0346C1.98053 14.1682 2.031 14.2966 2.1215 14.3933C2.21511 14.4882 2.3419 14.5415 2.47408 14.5415C2.60626 14.5415 2.73305 14.4882 2.82666 14.3933C3.9507 12.9275 5.48721 11.8451 7.23137 11.2903C8.20158 11.0051 9.20803 10.8682 10.2178 10.8838C11.3924 10.8838 12.565 10.9164 13.7396 10.9347L17.7188 10.9976C18.36 11.0078 18.362 9.99175 17.7188 9.98159Z" fill="#211915"/>
<path d="M2.17138 13.6597C0.829561 15.3729 0.067918 17.4813 -1.83408e-05 19.6707C-0.0493667 21.7637 0.557199 23.8183 1.7319 25.5374C2.38514 26.4976 3.19603 27.3362 4.12903 28.0165C4.18569 28.0502 4.24831 28.0721 4.31331 28.0811C4.37831 28.0901 4.44441 28.086 4.50785 28.069C4.57129 28.0521 4.63082 28.0225 4.68304 27.9821C4.73526 27.9417 4.77915 27.8913 4.81221 27.8337C4.84526 27.776 4.86683 27.7123 4.87568 27.6462C4.88454 27.5801 4.8805 27.5128 4.86381 27.4483C4.84711 27.3838 4.81809 27.3232 4.77838 27.2701C4.73868 27.2169 4.68909 27.1723 4.63242 27.1387C3.13959 26.0408 2.02478 24.4924 1.44635 22.7133C0.86793 20.9342 0.855311 19.0149 1.41029 17.2281C1.72439 16.1967 2.22131 15.2325 2.87653 14.3831C2.96716 14.2861 3.01769 14.1573 3.01769 14.0234C3.01769 13.8896 2.96716 13.7608 2.87653 13.6638C2.78266 13.5693 2.65597 13.5164 2.52395 13.5164C2.39193 13.5164 2.26524 13.5693 2.17138 13.6638V13.6597Z" fill="#211915"/>
<path d="M4.13507 28.0164C5.73891 29.1129 7.59111 29.7752 9.51662 29.9408C11.3848 30.1489 13.2739 29.8532 14.994 29.0833C16.6268 28.3448 17.9852 27.0954 18.8714 25.5169C19.7092 23.9811 20.0928 22.2317 19.9761 20.4793C19.8542 18.5854 19.205 16.6468 17.9365 15.2284C17.3209 14.5469 16.5671 14.0097 15.7272 13.6539C14.8873 13.2981 13.9815 13.1322 13.0723 13.1678C12.1197 13.2135 11.1906 13.484 10.3585 13.9581C9.52642 14.4321 8.81417 15.0966 8.2781 15.899C7.75419 16.6927 7.43228 17.6065 7.34127 18.5581C7.25027 19.5097 7.39303 20.4695 7.75673 21.3511C8.1101 22.1478 8.6625 22.8365 9.35891 23.3485C10.0553 23.8605 10.8714 24.1779 11.726 24.2692C12.646 24.3644 13.5709 24.1429 14.3525 23.6399C15.1341 23.137 15.7272 22.3819 16.0368 21.4954C16.18 21.0473 16.2389 20.5757 16.2106 20.1054C16.2075 19.9717 16.1539 19.8442 16.0609 19.7496C15.9679 19.655 15.8427 19.6005 15.7112 19.5974C15.5791 19.5984 15.4526 19.6523 15.3592 19.7474C15.2658 19.8424 15.2128 19.971 15.2118 20.1054C15.3137 21.7311 14.0711 23.0621 12.517 23.2531C11.1187 23.4259 9.68641 22.6435 8.94131 21.4608C8.09632 20.1135 8.12029 18.3111 8.84342 16.915C9.22456 16.1925 9.76843 15.572 10.4305 15.1044C11.0927 14.6368 11.8542 14.3352 12.6529 14.2245C13.4251 14.125 14.2094 14.201 14.9493 14.4469C15.6892 14.6929 16.3663 15.1028 16.9317 15.647C18.1023 16.7687 18.7515 18.4228 18.9413 20.0262C19.1297 21.5302 18.9072 23.0581 18.2981 24.4419C17.6493 25.8649 16.5792 27.0458 15.2378 27.8193C12.3852 29.4775 8.58973 29.321 5.71318 27.801C5.34163 27.6033 4.98268 27.3821 4.63847 27.1385C4.52367 27.0722 4.38792 27.0542 4.26025 27.0884C4.13258 27.1226 4.02312 27.2062 3.95529 27.3214C3.89162 27.4385 3.87477 27.5761 3.90826 27.7056C3.94174 27.835 4.02298 27.9463 4.13507 28.0164Z" fill="#211915"/>
</g>
</mask>
<g mask="url(#mask0_1110_222)">
<rect width="20" height="30" fill="#71D9A5"/>
</g>
<defs>
<clipPath id="clip0_1110_222">
<rect width="20" height="30" fill="white"/>
</clipPath>
</defs>
</svg>
