<svg width="50" height="50" viewBox="0 0 50 50" fill="none" xmlns="http://www.w3.org/2000/svg">
<circle cx="25" cy="25" r="25" fill="#FFEF5C"/>
<path d="M39 28.5006H33.9438C33.9807 28.2017 33.9994 27.9013 34 27.6006C34 25.4523 33.0518 23.3921 31.364 21.873C29.6761 20.354 27.3869 19.5006 25 19.5006C22.6131 19.5006 20.3239 20.354 18.636 21.873C16.9482 23.3921 16 25.4523 16 27.6006C16.0006 27.9013 16.0193 28.2017 16.0563 28.5006H11C10.7348 28.5006 10.4804 28.5954 10.2929 28.7642C10.1054 28.933 10 29.1619 10 29.4006C10 29.6393 10.1054 29.8682 10.2929 30.037C10.4804 30.2058 10.7348 30.3006 11 30.3006H39C39.2652 30.3006 39.5196 30.2058 39.7071 30.037C39.8946 29.8682 40 29.6393 40 29.4006C40 29.1619 39.8946 28.933 39.7071 28.7642C39.5196 28.5954 39.2652 28.5006 39 28.5006ZM18 27.6006C17.9982 26.7342 18.1949 25.8768 18.5779 25.082C18.9609 24.2872 19.5219 23.572 20.2259 22.9811C20.9299 22.3902 21.7618 21.9364 22.6695 21.648C23.5772 21.3595 24.5412 21.2427 25.5013 21.3047C26.4615 21.3668 27.3971 21.6064 28.2497 22.0086C29.1023 22.4108 29.8536 22.9669 30.4565 23.6423C31.0595 24.3176 31.5012 25.0976 31.7541 25.9335C32.007 26.7695 32.0656 27.6433 31.9263 28.5006H18.0737C18.0253 28.2025 18.0007 27.9018 18 27.6006ZM36 33.9006C36 34.1393 35.8946 34.3682 35.7071 34.537C35.5196 34.7058 35.2652 34.8006 35 34.8006H15C14.7348 34.8006 14.4804 34.7058 14.2929 34.537C14.1054 34.3682 14 34.1393 14 33.9006C14 33.6619 14.1054 33.433 14.2929 33.2642C14.4804 33.0954 14.7348 33.0006 15 33.0006H35C35.2652 33.0006 35.5196 33.0954 35.7071 33.2642C35.8946 33.433 36 33.6619 36 33.9006ZM18.105 16.3033C17.9863 16.0897 17.9668 15.8424 18.0507 15.6158C18.1346 15.3892 18.3151 15.2019 18.5525 15.0951C18.7899 14.9883 19.0647 14.9707 19.3164 15.0462C19.5682 15.1217 19.7763 15.2842 19.895 15.4978L20.895 17.2978C20.9538 17.4036 20.9888 17.5188 20.9981 17.6367C21.0074 17.7547 20.9908 17.8732 20.9493 17.9854C20.9077 18.0976 20.842 18.2013 20.7559 18.2906C20.6698 18.38 20.565 18.4532 20.4475 18.5061C20.33 18.559 20.202 18.5905 20.0709 18.5989C19.9399 18.6073 19.8082 18.5923 19.6836 18.5549C19.5589 18.5175 19.4436 18.4584 19.3444 18.3809C19.2451 18.3034 19.1638 18.2091 19.105 18.1033L18.105 16.3033ZM11.105 21.7978C11.1638 21.6921 11.2452 21.5978 11.3445 21.5204C11.4438 21.443 11.5591 21.3839 11.6838 21.3467C11.8085 21.3094 11.9401 21.2945 12.0711 21.303C12.2022 21.3115 12.3301 21.3432 12.4475 21.3962L14.4475 22.2962C14.6847 22.403 14.865 22.5903 14.9488 22.8168C15.0327 23.0432 15.0131 23.2904 14.8944 23.5039C14.7757 23.7174 14.5676 23.8797 14.316 23.9551C14.0643 24.0305 13.7897 24.0129 13.5525 23.9061L11.5525 23.0061C11.4349 22.9532 11.33 22.8801 11.2439 22.7907C11.1578 22.7014 11.092 22.5977 11.0505 22.4854C11.0089 22.3732 10.9923 22.2547 11.0017 22.1367C11.011 22.0188 11.0461 21.9036 11.105 21.7978ZM35.105 23.5033C34.9865 23.2898 34.9671 23.0427 35.051 22.8164C35.135 22.59 35.3153 22.4029 35.5525 22.2962L37.5525 21.3962C37.67 21.3433 37.7978 21.3118 37.9288 21.3033C38.0598 21.2949 38.1914 21.3098 38.316 21.3472C38.4406 21.3845 38.5558 21.4436 38.655 21.521C38.7543 21.5984 38.8356 21.6927 38.8944 21.7984C38.9531 21.9041 38.9882 22.0192 38.9975 22.1371C39.0069 22.255 38.9903 22.3734 38.9488 22.4855C38.9074 22.5977 38.8417 22.7014 38.7557 22.7907C38.6697 22.88 38.565 22.9532 38.4475 23.0061L36.4475 23.9061C36.33 23.959 36.202 23.9906 36.0709 23.9991C35.9398 24.0075 35.8082 23.9926 35.6835 23.9552C35.5588 23.9178 35.4435 23.8586 35.3443 23.7811C35.245 23.7035 35.1637 23.6092 35.105 23.5033ZM29.105 17.2978L30.105 15.4978C30.2237 15.2842 30.4318 15.1217 30.6836 15.0462C30.9353 14.9707 31.2101 14.9883 31.4475 15.0951C31.6849 15.2019 31.8654 15.3892 31.9493 15.6158C32.0332 15.8424 32.0137 16.0897 31.895 16.3033L30.895 18.1033C30.7763 18.317 30.5682 18.4794 30.3164 18.5549C30.0647 18.6305 29.7899 18.6129 29.5525 18.5061C29.3151 18.3993 29.1346 18.212 29.0507 17.9854C28.9668 17.7588 28.9863 17.5115 29.105 17.2978Z" fill="black"/>
</svg>
